<?xml version="1.0" standalone="no"?>
<!DOCTYPE svg PUBLIC "-//W3C//DTD SVG 20010904//EN"
 "http://www.w3.org/TR/2001/REC-SVG-20010904/DTD/svg10.dtd">
<svg version="1.0" xmlns="http://www.w3.org/2000/svg"
 width="1024.000000pt" height="1024.000000pt" viewBox="755 0 878.000000 650.000000"
 preserveAspectRatio="xMidYMid meet">

<g transform="translate(0.000000,650.000000) scale(0.280000,-0.280000)"
fill="#283365" stroke="none">
<path d="M2797 2307 c4 -7 64 -92 132 -189 l124 -177 1206 0 1206 -1 190 190
190 190 -1528 0 c-1255 0 -1527 -2 -1520 -13z"/>
<path d="M3470 1145 l0 -555 235 0 235 0 0 555 0 555 -235 0 -235 0 0 -555z"/>
<path d="M4026 1691 c-3 -4 -5 -166 -4 -358 l1 -350 151 -196 151 -196 708 -1
707 0 0 210 0 210 -625 0 -625 0 0 140 0 140 229 0 228 0 149 192 c82 105 153
198 157 205 7 11 -101 13 -607 13 -338 0 -617 -4 -620 -9z"/>
</g>
</svg>
